<?xml version="1.0" standalone="no"?>
<!DOCTYPE svg PUBLIC "-//W3C//DTD SVG 20010904//EN"
 "http://www.w3.org/TR/2001/REC-SVG-20010904/DTD/svg10.dtd">
<svg version="1.0" xmlns="http://www.w3.org/2000/svg"
 width="500.000000pt" height="500.000000pt" viewBox="0 0 500.000000 500.000000"
 preserveAspectRatio="xMidYMid meet">

<g transform="translate(0.000000,500.000000) scale(0.100000,-0.100000)"
fill="#000000" stroke="none">
<path d="M2604 4280 c-199 -40 -428 -170 -575 -327 -117 -124 -219 -308 -260
-468 -19 -76 -23 -117 -23 -265 0 -152 3 -187 23 -265 47 -183 131 -324 274
-462 96 -93 201 -168 280 -202 26 -11 47 -24 46 -28 0 -4 -31 -32 -70 -61
-111 -85 -189 -209 -189 -302 0 -91 54 -181 131 -221 l39 -19 0 -75 c0 -108
36 -260 77 -320 7 -11 13 -23 13 -26 0 -4 -39 -10 -87 -14 -100 -7 -127 -16
-142 -44 -8 -15 -7 -23 5 -35 14 -14 81 -16 589 -16 352 0 584 4 600 10 36 14
43 39 17 61 -17 13 -50 19 -132 24 -61 4 -110 8 -110 9 0 1 9 21 20 43 35 72
61 186 67 293 l6 105 58 28 c138 67 168 236 69 385 -21 31 -60 72 -85 90 -26
18 -44 37 -39 42 5 4 41 21 81 38 338 140 561 408 629 758 27 139 23 341 -10
469 -30 116 -105 275 -169 360 -142 189 -349 343 -548 409 -146 48 -416 60
-585 26z m475 -90 c94 -23 196 -65 291 -120 72 -42 233 -188 279 -253 68 -96
141 -237 167 -322 26 -84 28 -103 28 -270 1 -178 0 -181 -33 -280 -92 -275
-238 -448 -480 -569 -202 -102 -392 -140 -584 -118 -145 17 -233 44 -382 117
-195 95 -327 214 -423 383 -89 157 -131 344 -118 532 17 243 104 438 271 606
102 103 141 134 240 190 119 68 250 111 385 128 77 9 277 -4 359 -24z m-469
-2006 c122 -23 293 -27 385 -11 43 8 86 12 95 9 64 -25 167 -127 195 -196 34
-82 4 -177 -65 -206 -66 -27 -160 34 -160 104 0 43 -52 96 -78 80 -53 -34 9
-202 94 -255 34 -21 34 -21 34 -97 0 -146 -46 -309 -101 -360 -15 -15 -36 -22
-62 -22 -34 0 -46 6 -78 40 -30 31 -45 61 -69 139 -16 54 -36 104 -43 110 -16
12 -145 41 -187 41 -29 0 -44 -19 -34 -45 6 -15 81 -55 103 -55 19 0 6 -76
-24 -144 -40 -91 -98 -111 -154 -54 -43 44 -68 118 -88 259 -34 247 18 567
110 667 13 14 27 20 37 16 8 -3 49 -12 90 -20z m-285 -128 c-13 -41 -28 -107
-34 -148 -7 -40 -14 -88 -17 -106 -4 -28 -7 -31 -24 -22 -51 27 -66 136 -29
215 17 36 107 135 122 135 3 0 -5 -33 -18 -74z m430 -769 l24 -47 -45 0 c-33
0 -45 4 -41 13 2 6 10 29 18 49 7 21 14 36 16 35 1 -2 14 -24 28 -50z"/>
<path d="M3455 3870 c-10 -17 27 -63 59 -75 29 -10 57 1 64 26 2 8 -3 5 -11
-6 -21 -28 -66 -11 -89 33 -10 21 -19 29 -23 22z"/>
<path d="M2020 3511 c-85 -45 -127 -193 -80 -283 34 -66 67 -95 122 -108 63
-16 123 5 169 57 92 106 74 243 -43 330 -40 29 -117 31 -168 4z"/>
<path d="M2955 3517 c-56 -22 -76 -38 -106 -85 -25 -40 -29 -55 -29 -118 0
-67 3 -76 33 -116 43 -56 99 -88 157 -88 182 1 278 224 153 354 -61 63 -134
82 -208 53z"/>
<path d="M2406 3205 c-25 -13 -46 -51 -46 -86 0 -40 28 -123 51 -153 55 -70
162 -85 232 -32 76 58 112 192 67 249 -20 25 -24 26 -152 29 -76 2 -140 -1
-152 -7z m233 -84 c11 -7 11 -15 2 -44 -17 -50 -66 -90 -100 -82 -37 8 -81 59
-81 95 0 27 3 29 43 33 82 7 122 7 136 -2z"/>
<path d="M1059 4116 c-116 -32 -238 -137 -287 -246 -34 -75 -41 -196 -17 -271
25 -76 78 -152 144 -206 83 -68 129 -85 246 -93 84 -5 109 -10 155 -35 68 -36
177 -42 207 -13 17 18 16 33 -13 139 -2 9 11 39 31 67 95 139 106 277 34 428
-83 175 -314 281 -500 230z m182 -80 c75 -17 137 -54 192 -115 116 -130 125
-290 23 -415 -41 -51 -47 -76 -35 -139 5 -28 7 -52 5 -54 -8 -8 -82 28 -119
58 -37 30 -39 30 -88 19 -103 -25 -234 18 -311 102 -62 67 -88 136 -88 234 0
93 25 147 102 220 63 60 79 69 150 88 67 19 99 19 169 2z"/>
<path d="M946 3734 c-31 -31 -7 -94 35 -94 26 0 59 30 59 54 0 47 -62 73 -94
40z"/>
<path d="M1125 3726 c-34 -51 30 -111 75 -71 22 20 26 65 8 83 -21 21 -66 14
-83 -12z"/>
<path d="M1305 3730 c-39 -43 15 -107 70 -82 19 9 25 19 25 45 0 18 -5 38 -12
45 -18 18 -63 14 -83 -8z"/>
</g>
</svg>
